<svg width="635" height="141" xmlns="http://www.w3.org/2000/svg" xml:space="preserve" version="1.1">
 <g>
  <title>Layer 1</title>
  <g id="svg_1">
   <path id="svg_2" fill="#FFFFFF" d="m526.9,106.6c-3.4,-1.9 -1.2,-4.5 -1.2,-4.5l6.5,-8c1.4,-1.7 3.2,-1.5 4.6,-0.8c14.8,7.5 34.7,9.4 49.1,7.5c12.4,-1.7 14.6,-7 14.6,-11.7c0,-6.6 -6.3,-8.8 -6.3,-8.8c-3.8,-2 -18.9,-2.9 -37.6,-4.9c-18.7,-1.9 -29.4,-11 -29.4,-25.4c0,-8.9 3.6,-14.9 11.8,-20.3c8.6,-5.7 43.3,-13.9 77.8,4.8c3.2,1.6 1.2,4.5 1.2,4.5l-6.5,8c-1.4,1.6 -3.3,1.4 -4.6,0.8c-10.1,-5.5 -25.2,-8.3 -39.5,-8.2c-21.9,0.6 -21.9,7.5 -21.9,10.5c0,3.4 0,7.6 13.6,9.1l25.7,2.8c24.1,2.6 34.3,12 33.9,27.8c-0.5,15.8 -10.5,22 -23.8,25.7c0.1,0.2 -34.8,9.7 -68,-8.9" class="st0"/>
   <path id="svg_3" fill="#FFFFFF" d="m302.4,118l-12.6,0c-1.6,0 -3,-1.3 -3,-2.9l0,-88.8c0,-1.6 1.3,-3 3,-3l12.6,0c1.6,0 2.9,1.3 2.9,3l0,88.8c0,1.6 -1.3,2.9 -2.9,2.9" class="st0"/>
   <path id="svg_4" fill="#FFFFFF" d="m198.6,83.5c37.1,40.5 71.3,34.1 71.3,34.1c1.6,0 2.9,-1.3 2.9,-2.9l0,-11.4c0,-1.6 -1.3,-2.9 -2.9,-2.9c0,0 -20.8,0.8 -35.9,-8.6c-15.1,-9.4 -23.6,-21.1 -23.6,-21.2c0.1,-0.1 8.6,-11.8 23.6,-21.2c15.1,-9.4 35.9,-8.6 35.9,-8.6c1.6,0 2.9,-1.3 2.9,-2.9l0,-11.4c0,-1.6 -1.3,-2.9 -2.9,-2.9c0,0 -34.1,-6.3 -71.3,34.1c-37.1,-40.5 -71.2,-34.2 -71.2,-34.2c-1.6,0 -3,1.3 -3,2.9l0,11.6c0,1.6 1.3,2.9 3,2.9c0,0 20.8,-0.8 35.9,8.6c15.1,9.4 23.6,21.1 23.6,21.2c-0.1,0.1 -8.6,11.8 -23.6,21.1c-15.1,9.4 -35.9,8.6 -35.9,8.6c-1.6,0 -3,1.3 -3,2.9l0,11.4c0,1.6 1.3,2.9 3,2.9c-0.1,0.1 34,6.4 71.2,-34.1" class="st1"/>
   <path id="svg_5" fill="#FFFFFF" d="m398.2,31.1c-8.6,-5.7 -41.7,-15.5 -76.2,3.5c-3.2,1.6 -1.2,4.5 -1.2,4.5l6.4,8c1.4,1.6 3.3,1.5 4.6,0.8c10.1,-5.5 23.6,-7.9 37.9,-7.9c21.9,0.6 22.9,8.6 22.9,11.6l0,10.9c-3.5,-1.5 -7.5,-2.4 -11.6,-2.4l-35.8,0c-16,0 -29,13 -29,28.9c0,8 3.2,15.2 8.5,20.5c5.2,5.2 12.5,8.5 20.5,8.5l35.8,0c16,0 28.9,-13 28.9,-29l0,-37.5c0.1,-8.9 -3.5,-15 -11.7,-20.4m-16.2,70.7l-37.7,0c-6.7,0 -12.2,-5.7 -12.2,-12.7c0,-7 5.5,-12.7 12.2,-12.7l37.7,0c6.7,0 12.2,5.7 12.2,12.7c0,7 -5.5,12.7 -12.2,12.7" class="st0"/>
   <path id="svg_6" fill="#FFFFFF" d="m100.7,31.1c-8.6,-5.7 -41.7,-15.5 -76.2,3.5c-3.2,1.6 -1.2,4.5 -1.2,4.5l6.4,8c1.4,1.6 3.3,1.5 4.6,0.8c10.1,-5.5 23.6,-7.9 37.9,-7.9c21.9,0.6 22.9,8.6 22.9,11.6l0,10.9c-3.5,-1.5 -7.5,-2.4 -11.6,-2.4l-35.8,0c-16,0 -29,13 -29,28.9c0,8 3.2,15.2 8.5,20.5c5.2,5.2 12.5,8.5 20.5,8.5l35.8,0c16,0 28.9,-13 28.9,-29l0,-37.5c0.1,-8.9 -3.5,-15 -11.7,-20.4m-16.2,70.7l-37.7,0c-6.7,0 -12.2,-5.7 -12.2,-12.7c0,-7 5.5,-12.7 12.2,-12.7l37.7,0c6.7,0 12.2,5.7 12.2,12.7c-0.1,7 -5.5,12.7 -12.2,12.7" class="st0"/>
   <path id="svg_7" fill="#FFFFFF" d="m469,23.3c10.4,0 16.6,1 16.6,1c30.2,3.8 29.3,26.5 29.3,26.5l0,64.1c0,1.6 -1.3,2.9 -3,2.9l-11.5,0c-1.6,0 -3,-1.3 -3,-2.9l0,-64.1c0,0 0.4,-8.3 -15.7,-9.7c-9.5,-0.8 -12.8,-0.6 -12.8,-0.6s-3.4,-0.2 -12.8,0.6c-16.1,1.4 -15.7,9.7 -15.7,9.7l0,64.1c0,1.6 -1.3,2.9 -3,2.9l-11.5,0c-1.6,0 -3,-1.3 -3,-2.9l0,-64.1c0,0 -0.9,-22.7 29.3,-26.5c0.3,0 6.4,-1 16.8,-1" class="st0"/>
  </g>
 </g>

</svg>